# xmcd CD database file
#
# Track frame offsets:
#	150
#	17251
#	34910
#	61880
#	79080
#	96412
#	135682
#	155280
#	183330
#	205362
#	223602
#	235051
#	260628
#	280548
#	298579
#	313351
#
# Disc length: 4331 seconds
#
# Revision: 0
# Processed by: cddbd v1.5.1PL0 Copyright (c) Steve Scherf et al.
# Submitted via: CDex 1.51
#
DISCID=e510e910
DTITLE=Gap Mangione - Stolen Moments
DYEAR=2004
DGENRE=Jazz
TTITLE0=Happy Together
TTITLE1=Fool On the Hill
TTITLE2=And I Love Her
TTITLE3=Knock On Wood
TTITLE4=Big P
TTITLE5=Stolen Moments
TTITLE6=With a Little Help From My Friends
TTITLE7=The Gap
TTITLE8=Moon River
TTITLE9=The Need To Be
TTITLE10=Dance Ballerina Dance
TTITLE11=Something
TTITLE12=Scarborough Fair
TTITLE13=The Gap Theme
TTITLE14=Golden Slumbers
TTITLE15=The End
EXTD=YEAR: 2004
EXTT0=
EXTT1=
EXTT2=
EXTT3=
EXTT4=
EXTT5=
EXTT6=
EXTT7=
EXTT8=
EXTT9=
EXTT10=
EXTT11=
EXTT12=
EXTT13=
EXTT14=
EXTT15=
PLAYORDER=
